# xmcd CD database file
#
# Track frame offsets:
#	150
#	12444
#	25751
#	42741
#	56965
#	69907
#	84178
#	104248
#	120517
#	132110
#	144351
#	157436
#	171262
#	183877
#	196790
#
# Disc length: 2803 seconds
#
# Revision: 0
# Processed by: cddbd v1.5.2PL0 Copyright (c) Steve Scherf et al.
# Submitted via: CDex 1.75
#
DISCID=d20af10f
DTITLE=Various Artist - Great Traditional Blues Disk 2
DYEAR=2017
DGENRE=Blues
TTITLE0=How Many More Years - Howlin' Wolf
TTITLE1=Dust My Broom - Elmore James
TTITLE2=Pearline - Son House
TTITLE3=Just A Dream - Big Bill Broonzy
TTITLE4=Baby Please Don't Go - Big Joe Williams
TTITLE5=I Just Wanna To Make Love To You - Etta James
TTITLE6=Beer Drinking Woman - Memphis Slim
TTITLE7=Ain't Nobody's Business - Jimmy Witherspoon
TTITLE8=Boom Boom - John Lee Hooker
TTITLE9=Cross Road Blues - Robert Johnson
TTITLE10=Got My Mojo Working - Muddy Water
TTITLE11=Sweet Home Chicago - Robert Johnson
TTITLE12=Key To The Highway - Little Walter
TTITLE13=Everyday I Have The Blues - B.B.King
TTITLE14=Walkin'Blues - Muddy Waters
EXTD=YEAR: 2017
EXTT0=
EXTT1=
EXTT2=
EXTT3=
EXTT4=
EXTT5=
EXTT6=
EXTT7=
EXTT8=
EXTT9=
EXTT10=
EXTT11=
EXTT12=
EXTT13=
EXTT14=
PLAYORDER=
